<svg width="16" height="16" viewBox="0 0 16 16" fill="none" xmlns="http://www.w3.org/2000/svg">
<path d="M7.55333 10.3593C7.55333 9.74956 7.64689 9.24111 7.834 8.834C8.02067 8.42689 8.40511 7.96867 8.98733 7.45933C9.39178 7.09311 9.69622 6.74578 9.90067 6.41733C10.1051 6.08889 10.2073 5.71867 10.2073 5.30667C10.2073 4.71422 10.0033 4.22089 9.59533 3.82667C9.18733 3.43289 8.62978 3.236 7.92267 3.236C7.34756 3.236 6.88933 3.36978 6.548 3.63733C6.20667 3.90489 5.93222 4.23778 5.72467 4.636L5.00667 4.3C5.29156 3.73422 5.67245 3.28622 6.14933 2.956C6.62622 2.62622 7.21733 2.46133 7.92267 2.46133C8.90933 2.46133 9.66978 2.74356 10.204 3.308C10.7382 3.87245 11.0049 4.53333 11.004 5.29067C11.004 5.77822 10.8976 6.22333 10.6847 6.626C10.4713 7.02911 10.1602 7.41222 9.75133 7.77533C9.13889 8.31489 8.75289 8.75489 8.59333 9.09533C8.43422 9.43578 8.35467 9.85689 8.35467 10.3587L7.55333 10.3593ZM7.924 14C7.74533 14 7.58956 13.9336 7.45667 13.8007C7.32333 13.6678 7.25667 13.512 7.25667 13.3333C7.25667 13.1547 7.32333 12.9989 7.45667 12.866C7.59 12.7331 7.74556 12.6667 7.92333 12.6667C8.10111 12.6667 8.25711 12.7331 8.39133 12.866C8.52556 12.9989 8.592 13.1547 8.59067 13.3333C8.58933 13.512 8.52267 13.6678 8.39067 13.8007C8.25867 13.9336 8.10311 14 7.924 14Z" fill="#F7F7F7"/>
</svg>
