<svg width="16" height="16" viewBox="0 0 16 16" fill="none" xmlns="http://www.w3.org/2000/svg">
<path d="M8.039 13.135C8.26033 13.135 8.447 13.059 8.599 12.907C8.751 12.755 8.827 12.5683 8.827 12.347C8.827 12.1243 8.751 11.937 8.599 11.785C8.447 11.6337 8.26033 11.558 8.039 11.558C7.81767 11.558 7.63067 11.6337 7.478 11.785C7.32533 11.9363 7.24933 12.1233 7.25 12.346C7.25067 12.5687 7.32667 12.7553 7.478 12.906C7.62933 13.0567 7.817 13.133 8.039 13.135ZM7.523 9.823H8.489C8.51433 9.37633 8.597 9.02133 8.737 8.758C8.877 8.49333 9.14433 8.16367 9.539 7.769C10.019 7.28833 10.3673 6.87167 10.584 6.519C10.8 6.16567 10.908 5.76433 10.908 5.315C10.908 4.535 10.64 3.906 10.104 3.428C9.568 2.95 8.91367 2.711 8.141 2.711C7.429 2.711 6.81633 2.901 6.303 3.281C5.78967 3.66033 5.41433 4.11533 5.177 4.646L6.097 5.027C6.26433 4.62833 6.504 4.298 6.816 4.036C7.12733 3.77333 7.54833 3.642 8.079 3.642C8.70833 3.642 9.17633 3.81433 9.483 4.159C9.78967 4.503 9.943 4.89433 9.943 5.333C9.943 5.667 9.851 5.97333 9.667 6.252C9.48367 6.53 9.227 6.82233 8.897 7.129C8.359 7.625 7.99567 8.07167 7.807 8.469C7.61833 8.86633 7.52367 9.31767 7.523 9.823ZM0 16V0H16V16H0ZM1 15H15V1H1V15Z" fill="black"/>
</svg>
