<svg width="18" height="17" viewBox="0 0 18 17" fill="none" xmlns="http://www.w3.org/2000/svg">
<path d="M0 17V1H6V2H1V16H15V9.996L16 10.996V17H0ZM3.5 13.5L5.462 10.923L7.212 13.039L9.827 9.731L12.654 13.5H3.5ZM17.28 9.477L14.142 6.339C13.8053 6.585 13.4787 6.75667 13.162 6.854C12.8453 6.95133 12.4877 7 12.089 7C11.1117 7 10.286 6.662 9.612 5.986C8.93733 5.30867 8.6 4.48 8.6 3.5C8.6 2.52 8.93833 1.69167 9.615 1.015C10.2917 0.338333 11.12 0 12.1 0C13.08 0 13.9087 0.338333 14.586 1.015C15.2633 1.69167 15.6013 2.52 15.6 3.5C15.6 3.89867 15.54 4.27767 15.42 4.637C15.3 4.99633 15.1267 5.344 14.9 5.68L17.989 8.768L17.28 9.477ZM12.1 6C12.8 6 13.3917 5.75833 13.875 5.275C14.3583 4.79167 14.6 4.2 14.6 3.5C14.6 2.8 14.3583 2.20833 13.875 1.725C13.3917 1.24167 12.8 1 12.1 1C11.4 1 10.8083 1.24167 10.325 1.725C9.84167 2.20833 9.6 2.8 9.6 3.5C9.6 4.2 9.84167 4.79167 10.325 5.275C10.8083 5.75833 11.4 6 12.1 6Z" fill="black"/>
</svg>
