<svg width="238" height="59" viewBox="0 0 238 59" fill="none" xmlns="http://www.w3.org/2000/svg">
<path d="M130.139 46.5455V47.2557H127.312V46.5455H130.139ZM128.136 45.2386H128.974V50.4375C128.974 50.6742 129.009 50.8518 129.077 50.9702C129.148 51.0862 129.238 51.1643 129.347 51.2045C129.459 51.2424 129.576 51.2614 129.699 51.2614C129.791 51.2614 129.867 51.2566 129.926 51.2472C129.985 51.2353 130.033 51.2259 130.068 51.2188L130.239 51.9716C130.182 51.9929 130.103 52.0142 130.001 52.0355C129.899 52.0592 129.77 52.071 129.614 52.071C129.377 52.071 129.145 52.0201 128.918 51.9183C128.693 51.8165 128.506 51.6615 128.357 51.4531C128.21 51.2448 128.136 50.982 128.136 50.6648V45.2386ZM133.557 52.1136C133.065 52.1136 132.633 51.9964 132.261 51.7621C131.892 51.5277 131.603 51.1998 131.395 50.7784C131.189 50.357 131.086 49.8646 131.086 49.3011C131.086 48.733 131.189 48.237 131.395 47.8132C131.603 47.3894 131.892 47.0604 132.261 46.826C132.633 46.5916 133.065 46.4744 133.557 46.4744C134.05 46.4744 134.48 46.5916 134.85 46.826C135.221 47.0604 135.51 47.3894 135.716 47.8132C135.925 48.237 136.029 48.733 136.029 49.3011C136.029 49.8646 135.925 50.357 135.716 50.7784C135.51 51.1998 135.221 51.5277 134.85 51.7621C134.48 51.9964 134.05 52.1136 133.557 52.1136ZM133.557 51.3608C133.931 51.3608 134.239 51.2649 134.48 51.0732C134.722 50.8814 134.901 50.6293 135.017 50.3168C135.133 50.0043 135.191 49.6657 135.191 49.3011C135.191 48.9366 135.133 48.5968 135.017 48.282C134.901 47.9671 134.722 47.7126 134.48 47.5185C134.239 47.3243 133.931 47.2273 133.557 47.2273C133.183 47.2273 132.875 47.3243 132.634 47.5185C132.392 47.7126 132.214 47.9671 132.098 48.282C131.982 48.5968 131.924 48.9366 131.924 49.3011C131.924 49.6657 131.982 50.0043 132.098 50.3168C132.214 50.6293 132.392 50.8814 132.634 51.0732C132.875 51.2649 133.183 51.3608 133.557 51.3608ZM138.358 52L136.696 46.5455H137.577L138.756 50.7216H138.813L139.978 46.5455H140.873L142.023 50.7074H142.08L143.259 46.5455H144.14L142.478 52H141.654L140.461 47.8097H140.375L139.182 52H138.358ZM146.853 52.1278C146.507 52.1278 146.193 52.0627 145.912 51.9325C145.63 51.8 145.406 51.6094 145.24 51.3608C145.075 51.1098 144.992 50.8068 144.992 50.4517C144.992 50.1392 145.053 49.8859 145.176 49.6918C145.3 49.4953 145.464 49.3414 145.67 49.2301C145.876 49.1188 146.103 49.036 146.352 48.9815C146.603 48.9247 146.855 48.8797 147.108 48.8466C147.44 48.804 147.708 48.772 147.914 48.7507C148.123 48.727 148.274 48.688 148.369 48.6335C148.466 48.5791 148.515 48.4844 148.515 48.3494V48.321C148.515 47.9706 148.419 47.6984 148.227 47.5043C148.038 47.3101 147.75 47.2131 147.364 47.2131C146.964 47.2131 146.65 47.3007 146.423 47.4759C146.196 47.651 146.036 47.8381 145.944 48.0369L145.148 47.7528C145.29 47.4214 145.48 47.1634 145.716 46.9787C145.955 46.7917 146.216 46.6615 146.498 46.5881C146.782 46.5123 147.061 46.4744 147.336 46.4744C147.511 46.4744 147.712 46.4957 147.939 46.5384C148.169 46.5786 148.39 46.6626 148.603 46.7905C148.819 46.9183 148.998 47.1113 149.14 47.3693C149.282 47.6274 149.353 47.973 149.353 48.4062V52H148.515V51.2614H148.472C148.415 51.3797 148.32 51.5064 148.188 51.6413C148.055 51.7763 147.879 51.8911 147.659 51.9858C147.439 52.0805 147.17 52.1278 146.853 52.1278ZM146.98 51.375C147.312 51.375 147.591 51.3099 147.819 51.1797C148.048 51.0495 148.221 50.8814 148.337 50.6754C148.455 50.4695 148.515 50.2528 148.515 50.0256V49.2585C148.479 49.3011 148.401 49.3402 148.28 49.3757C148.162 49.4089 148.025 49.4384 147.868 49.4645C147.714 49.4882 147.564 49.5095 147.417 49.5284C147.273 49.545 147.156 49.5592 147.066 49.571C146.848 49.5994 146.644 49.6456 146.455 49.7095C146.268 49.7711 146.116 49.8646 146 49.9901C145.887 50.1132 145.83 50.2812 145.83 50.4943C145.83 50.7855 145.938 51.0057 146.153 51.1548C146.371 51.3016 146.647 51.375 146.98 51.375ZM150.882 52V46.5455H151.692V47.3693H151.749C151.848 47.0994 152.028 46.8804 152.289 46.7124C152.549 46.5443 152.843 46.4602 153.169 46.4602C153.231 46.4602 153.308 46.4614 153.4 46.4638C153.492 46.4661 153.562 46.4697 153.61 46.4744V47.3267C153.581 47.3196 153.516 47.3089 153.414 47.2947C153.315 47.2782 153.209 47.2699 153.098 47.2699C152.833 47.2699 152.596 47.3255 152.388 47.4368C152.182 47.5457 152.019 47.6972 151.898 47.8913C151.78 48.0831 151.72 48.3021 151.72 48.5483V52H150.882ZM156.497 52.1136C156.042 52.1136 155.641 51.9988 155.293 51.7692C154.945 51.5372 154.673 51.2105 154.476 50.7891C154.28 50.3653 154.181 49.8646 154.181 49.2869C154.181 48.714 154.28 48.2169 154.476 47.7955C154.673 47.3741 154.946 47.0485 155.296 46.8189C155.647 46.5893 156.052 46.4744 156.511 46.4744C156.866 46.4744 157.146 46.5336 157.352 46.652C157.561 46.768 157.719 46.9006 157.828 47.0497C157.94 47.1965 158.026 47.3172 158.088 47.4119H158.159V44.7273H158.997V52H158.187V51.1619H158.088C158.026 51.2614 157.938 51.3868 157.825 51.5384C157.711 51.6875 157.549 51.8213 157.338 51.9396C157.128 52.0556 156.847 52.1136 156.497 52.1136ZM156.61 51.3608C156.946 51.3608 157.231 51.2732 157.463 51.098C157.695 50.9205 157.871 50.6754 157.992 50.3629C158.112 50.0481 158.173 49.6847 158.173 49.2727C158.173 48.8655 158.114 48.5092 157.995 48.2038C157.877 47.8961 157.702 47.657 157.47 47.4865C157.238 47.3137 156.951 47.2273 156.61 47.2273C156.255 47.2273 155.959 47.3184 155.722 47.5007C155.488 47.6806 155.312 47.9257 155.193 48.2358C155.077 48.5436 155.019 48.8892 155.019 49.2727C155.019 49.661 155.079 50.0137 155.197 50.331C155.318 50.6458 155.495 50.8968 155.73 51.0838C155.966 51.2685 156.26 51.3608 156.61 51.3608ZM164.512 47.767L163.759 47.9801C163.711 47.8546 163.642 47.7327 163.549 47.6143C163.459 47.4936 163.336 47.3942 163.18 47.3161C163.024 47.2379 162.824 47.1989 162.58 47.1989C162.246 47.1989 161.968 47.2758 161.745 47.4297C161.525 47.5812 161.415 47.7741 161.415 48.0085C161.415 48.2169 161.491 48.3814 161.642 48.5021C161.794 48.6229 162.03 48.7235 162.352 48.804L163.162 49.0028C163.65 49.1212 164.013 49.3023 164.252 49.5462C164.491 49.7876 164.611 50.099 164.611 50.4801C164.611 50.7926 164.521 51.072 164.341 51.3182C164.164 51.5644 163.915 51.7585 163.595 51.9006C163.276 52.0426 162.904 52.1136 162.48 52.1136C161.924 52.1136 161.463 51.9929 161.099 51.7514C160.734 51.5099 160.503 51.1572 160.406 50.6932L161.202 50.4943C161.278 50.7879 161.421 51.008 161.632 51.1548C161.845 51.3016 162.123 51.375 162.466 51.375C162.857 51.375 163.167 51.2921 163.396 51.1264C163.628 50.9583 163.744 50.7571 163.744 50.5227C163.744 50.3333 163.678 50.1747 163.546 50.0469C163.413 49.9167 163.209 49.8196 162.935 49.7557L162.026 49.5426C161.526 49.4242 161.159 49.2408 160.925 48.9922C160.693 48.7412 160.577 48.4276 160.577 48.0511C160.577 47.7434 160.663 47.4711 160.836 47.2344C161.011 46.9976 161.249 46.8118 161.55 46.6768C161.853 46.5419 162.196 46.4744 162.58 46.4744C163.119 46.4744 163.543 46.5928 163.851 46.8295C164.161 47.0663 164.381 47.3788 164.512 47.767ZM169.679 44.7273V52H168.799V44.7273H169.679ZM172.17 48.7188V52H171.331V46.5455H172.141V47.3977H172.212C172.34 47.1207 172.534 46.8982 172.795 46.7301C173.055 46.5597 173.391 46.4744 173.803 46.4744C174.172 46.4744 174.496 46.5502 174.773 46.7017C175.05 46.8509 175.265 47.0781 175.419 47.3835C175.573 47.6866 175.65 48.0701 175.65 48.5341V52H174.812V48.5909C174.812 48.1624 174.7 47.8286 174.478 47.5895C174.255 47.348 173.95 47.2273 173.562 47.2273C173.294 47.2273 173.055 47.2853 172.844 47.4013C172.636 47.5173 172.471 47.6866 172.351 47.9091C172.23 48.1316 172.17 48.4015 172.17 48.7188ZM179.241 52.1136C178.786 52.1136 178.385 51.9988 178.037 51.7692C177.689 51.5372 177.417 51.2105 177.22 50.7891C177.024 50.3653 176.925 49.8646 176.925 49.2869C176.925 48.714 177.024 48.2169 177.22 47.7955C177.417 47.3741 177.69 47.0485 178.04 46.8189C178.391 46.5893 178.796 46.4744 179.255 46.4744C179.61 46.4744 179.891 46.5336 180.097 46.652C180.305 46.768 180.464 46.9006 180.572 47.0497C180.684 47.1965 180.77 47.3172 180.832 47.4119H180.903V44.7273H181.741V52H180.931V51.1619H180.832C180.77 51.2614 180.683 51.3868 180.569 51.5384C180.455 51.6875 180.293 51.8213 180.082 51.9396C179.872 52.0556 179.591 52.1136 179.241 52.1136ZM179.354 51.3608C179.691 51.3608 179.975 51.2732 180.207 51.098C180.439 50.9205 180.615 50.6754 180.736 50.3629C180.857 50.0481 180.917 49.6847 180.917 49.2727C180.917 48.8655 180.858 48.5092 180.739 48.2038C180.621 47.8961 180.446 47.657 180.214 47.4865C179.982 47.3137 179.695 47.2273 179.354 47.2273C178.999 47.2273 178.703 47.3184 178.467 47.5007C178.232 47.6806 178.056 47.9257 177.938 48.2358C177.821 48.5436 177.763 48.8892 177.763 49.2727C177.763 49.661 177.823 50.0137 177.941 50.331C178.062 50.6458 178.239 50.8968 178.474 51.0838C178.71 51.2685 179.004 51.3608 179.354 51.3608ZM183.392 52V46.5455H184.23V52H183.392ZM183.818 45.6364C183.655 45.6364 183.514 45.5807 183.396 45.4695C183.28 45.3582 183.222 45.2244 183.222 45.0682C183.222 44.9119 183.28 44.7782 183.396 44.6669C183.514 44.5556 183.655 44.5 183.818 44.5C183.982 44.5 184.121 44.5556 184.237 44.6669C184.356 44.7782 184.415 44.9119 184.415 45.0682C184.415 45.2244 184.356 45.3582 184.237 45.4695C184.121 45.5807 183.982 45.6364 183.818 45.6364ZM187.37 52.1278C187.025 52.1278 186.711 52.0627 186.429 51.9325C186.147 51.8 185.924 51.6094 185.758 51.3608C185.592 51.1098 185.509 50.8068 185.509 50.4517C185.509 50.1392 185.571 49.8859 185.694 49.6918C185.817 49.4953 185.982 49.3414 186.188 49.2301C186.394 49.1188 186.621 49.036 186.869 48.9815C187.12 48.9247 187.373 48.8797 187.626 48.8466C187.957 48.804 188.226 48.772 188.432 48.7507C188.64 48.727 188.792 48.688 188.887 48.6335C188.984 48.5791 189.032 48.4844 189.032 48.3494V48.321C189.032 47.9706 188.936 47.6984 188.744 47.5043C188.555 47.3101 188.267 47.2131 187.882 47.2131C187.481 47.2131 187.168 47.3007 186.941 47.4759C186.713 47.651 186.553 47.8381 186.461 48.0369L185.666 47.7528C185.808 47.4214 185.997 47.1634 186.234 46.9787C186.473 46.7917 186.733 46.6615 187.015 46.5881C187.299 46.5123 187.579 46.4744 187.853 46.4744C188.028 46.4744 188.23 46.4957 188.457 46.5384C188.686 46.5786 188.908 46.6626 189.121 46.7905C189.336 46.9183 189.515 47.1113 189.657 47.3693C189.799 47.6274 189.87 47.973 189.87 48.4062V52H189.032V51.2614H188.99C188.933 51.3797 188.838 51.5064 188.705 51.6413C188.573 51.7763 188.396 51.8911 188.176 51.9858C187.956 52.0805 187.687 52.1278 187.37 52.1278ZM187.498 51.375C187.829 51.375 188.109 51.3099 188.336 51.1797C188.566 51.0495 188.739 50.8814 188.855 50.6754C188.973 50.4695 189.032 50.2528 189.032 50.0256V49.2585C188.997 49.3011 188.919 49.3402 188.798 49.3757C188.679 49.4089 188.542 49.4384 188.386 49.4645C188.232 49.4882 188.082 49.5095 187.935 49.5284C187.79 49.545 187.673 49.5592 187.583 49.571C187.365 49.5994 187.162 49.6456 186.972 49.7095C186.785 49.7711 186.634 49.8646 186.518 49.9901C186.404 50.1132 186.347 50.2812 186.347 50.4943C186.347 50.7855 186.455 51.0057 186.671 51.1548C186.888 51.3016 187.164 51.375 187.498 51.375ZM196.499 52.1136C195.974 52.1136 195.52 51.9976 195.139 51.7656C194.76 51.5312 194.468 51.2045 194.262 50.7855C194.058 50.3641 193.957 49.8741 193.957 49.3153C193.957 48.7566 194.058 48.2642 194.262 47.8381C194.468 47.4096 194.754 47.0758 195.121 46.8366C195.491 46.5952 195.922 46.4744 196.414 46.4744C196.698 46.4744 196.979 46.5218 197.256 46.6165C197.533 46.7112 197.785 46.8651 198.012 47.0781C198.239 47.2888 198.42 47.5682 198.555 47.9162C198.69 48.2642 198.758 48.6927 198.758 49.2017V49.5568H194.553V48.8324H197.906C197.906 48.5246 197.844 48.25 197.721 48.0085C197.6 47.767 197.427 47.5765 197.202 47.4368C196.98 47.2971 196.717 47.2273 196.414 47.2273C196.08 47.2273 195.791 47.3101 195.548 47.4759C195.306 47.6392 195.12 47.8523 194.99 48.1151C194.86 48.3778 194.795 48.6596 194.795 48.9602V49.4432C194.795 49.8551 194.866 50.2043 195.008 50.4908C195.152 50.7749 195.352 50.9915 195.608 51.1406C195.864 51.2874 196.161 51.3608 196.499 51.3608C196.719 51.3608 196.918 51.33 197.096 51.2685C197.276 51.2045 197.431 51.1098 197.561 50.9844C197.691 50.8565 197.792 50.6979 197.863 50.5085L198.673 50.7358C198.587 51.0104 198.444 51.2519 198.243 51.4602C198.042 51.6662 197.793 51.8272 197.497 51.9432C197.201 52.0568 196.869 52.1136 196.499 52.1136ZM205.118 47C205.04 46.7609 204.937 46.5466 204.809 46.3572C204.683 46.1655 204.533 46.0021 204.358 45.8672C204.185 45.7322 203.989 45.6293 203.768 45.5582C203.548 45.4872 203.307 45.4517 203.044 45.4517C202.613 45.4517 202.221 45.563 201.869 45.7855C201.516 46.008 201.235 46.3359 201.027 46.7692C200.819 47.2024 200.714 47.7339 200.714 48.3636C200.714 48.9934 200.82 49.5249 201.031 49.9581C201.241 50.3913 201.527 50.7192 201.886 50.9418C202.246 51.1643 202.651 51.2756 203.101 51.2756C203.518 51.2756 203.884 51.1868 204.202 51.0092C204.521 50.8293 204.77 50.576 204.947 50.2493C205.127 49.9202 205.217 49.5331 205.217 49.0881L205.487 49.1449H203.3V48.3636H206.07V49.1449C206.07 49.7438 205.942 50.2647 205.686 50.7074C205.433 51.1501 205.082 51.4934 204.635 51.7372C204.19 51.9787 203.679 52.0994 203.101 52.0994C202.457 52.0994 201.891 51.9479 201.403 51.6449C200.918 51.3419 200.539 50.911 200.267 50.3523C199.997 49.7936 199.862 49.1307 199.862 48.3636C199.862 47.7884 199.939 47.2711 200.093 46.8118C200.249 46.3501 200.469 45.9571 200.754 45.6328C201.038 45.3085 201.374 45.0599 201.762 44.8871C202.15 44.7143 202.578 44.6278 203.044 44.6278C203.428 44.6278 203.785 44.6858 204.116 44.8018C204.45 44.9155 204.747 45.0777 205.008 45.2884C205.271 45.4967 205.49 45.7464 205.665 46.0376C205.84 46.3265 205.961 46.6473 206.027 47H205.118ZM209.68 52.1136C209.188 52.1136 208.756 51.9964 208.384 51.7621C208.015 51.5277 207.726 51.1998 207.518 50.7784C207.312 50.357 207.209 49.8646 207.209 49.3011C207.209 48.733 207.312 48.237 207.518 47.8132C207.726 47.3894 208.015 47.0604 208.384 46.826C208.756 46.5916 209.188 46.4744 209.68 46.4744C210.173 46.4744 210.604 46.5916 210.973 46.826C211.345 47.0604 211.633 47.3894 211.839 47.8132C212.048 48.237 212.152 48.733 212.152 49.3011C212.152 49.8646 212.048 50.357 211.839 50.7784C211.633 51.1998 211.345 51.5277 210.973 51.7621C210.604 51.9964 210.173 52.1136 209.68 52.1136ZM209.68 51.3608C210.054 51.3608 210.362 51.2649 210.604 51.0732C210.845 50.8814 211.024 50.6293 211.14 50.3168C211.256 50.0043 211.314 49.6657 211.314 49.3011C211.314 48.9366 211.256 48.5968 211.14 48.282C211.024 47.9671 210.845 47.7126 210.604 47.5185C210.362 47.3243 210.054 47.2273 209.68 47.2273C209.306 47.2273 208.998 47.3243 208.757 47.5185C208.515 47.7126 208.337 47.9671 208.221 48.282C208.105 48.5968 208.047 48.9366 208.047 49.3011C208.047 49.6657 208.105 50.0043 208.221 50.3168C208.337 50.6293 208.515 50.8814 208.757 51.0732C208.998 51.2649 209.306 51.3608 209.68 51.3608ZM217.696 46.5455L215.679 52H214.827L212.81 46.5455H213.719L215.224 50.892H215.281L216.787 46.5455H217.696Z" fill="black"/>
<path d="M58.776 23V6.536H66.048C66.912 6.536 67.696 6.744 68.4 7.16C69.104 7.576 69.664 8.136 70.08 8.84C70.512 9.544 70.728 10.32 70.728 11.168V11.408C70.728 12.256 70.512 13.04 70.08 13.76C69.664 14.48 69.104 15.056 68.4 15.488C67.696 15.904 66.912 16.112 66.048 16.112H61.272V23H58.776ZM61.272 14.072H65.448C65.96 14.072 66.424 13.952 66.84 13.712C67.256 13.472 67.584 13.144 67.824 12.728C68.064 12.312 68.184 11.84 68.184 11.312C68.184 10.8 68.064 10.336 67.824 9.92C67.584 9.504 67.256 9.176 66.84 8.936C66.44 8.68 65.976 8.552 65.448 8.552H61.272V14.072ZM75.5906 23V12.608H72.4946V10.736H77.5346L77.6546 12.536C77.9426 11.896 78.3826 11.4 78.9746 11.048C79.5826 10.68 80.2786 10.496 81.0626 10.496C82.2626 10.496 83.1826 10.856 83.8226 11.576C84.4786 12.28 84.8066 13.184 84.8066 14.288C84.8066 14.464 84.7986 14.632 84.7826 14.792C84.7826 14.936 84.7666 15.112 84.7346 15.32H82.6946V14.816C82.6946 14.384 82.6066 13.984 82.4306 13.616C82.2706 13.248 82.0146 12.952 81.6626 12.728C81.3266 12.488 80.8866 12.368 80.3426 12.368C79.8146 12.368 79.3666 12.52 78.9986 12.824C78.6466 13.128 78.3826 13.512 78.2066 13.976C78.0306 14.44 77.9426 14.928 77.9426 15.44V23H75.5906ZM72.3746 23V21.152H83.4386V23H72.3746ZM92.9813 23.24C91.7973 23.24 90.7813 22.976 89.9333 22.448C89.0853 21.92 88.4373 21.192 87.9893 20.264C87.5413 19.32 87.3173 18.256 87.3173 17.072V16.664C87.3173 15.448 87.5413 14.376 87.9893 13.448C88.4373 12.52 89.0853 11.8 89.9333 11.288C90.7813 10.76 91.7893 10.496 92.9573 10.496C94.1573 10.496 95.1813 10.76 96.0293 11.288C96.8773 11.816 97.5253 12.544 97.9733 13.472C98.4213 14.4 98.6453 15.464 98.6453 16.664V17.072C98.6453 18.288 98.4213 19.36 97.9733 20.288C97.5253 21.216 96.8773 21.944 96.0293 22.472C95.1813 22.984 94.1653 23.24 92.9813 23.24ZM92.9813 21.536C93.9093 21.536 94.6693 21.2 95.2613 20.528C95.8533 19.84 96.1493 18.888 96.1493 17.672V16.064C96.1493 14.848 95.8533 13.904 95.2613 13.232C94.6693 12.544 93.9093 12.2 92.9813 12.2C92.0693 12.2 91.3093 12.544 90.7013 13.232C90.1093 13.904 89.8133 14.848 89.8133 16.064V17.672C89.8133 18.888 90.1093 19.84 90.7013 20.528C91.3093 21.2 92.0693 21.536 92.9813 21.536ZM109.604 23.24C108.164 23.24 107.02 22.928 106.172 22.304C105.324 21.664 104.9 20.624 104.9 19.184V12.608H101.348V10.736H104.972L105.812 6.824H107.3V10.736H112.844V12.608H107.3V18.992C107.3 19.536 107.412 19.984 107.636 20.336C107.86 20.688 108.188 20.944 108.62 21.104C109.052 21.264 109.596 21.344 110.252 21.344C110.764 21.344 111.236 21.28 111.668 21.152C112.116 21.008 112.508 20.856 112.844 20.696V22.544C112.46 22.768 111.972 22.936 111.38 23.048C110.788 23.176 110.196 23.24 109.604 23.24ZM121.763 23.24C120.579 23.24 119.563 22.976 118.715 22.448C117.867 21.92 117.219 21.192 116.771 20.264C116.323 19.32 116.099 18.256 116.099 17.072V16.664C116.099 15.448 116.323 14.376 116.771 13.448C117.219 12.52 117.867 11.8 118.715 11.288C119.563 10.76 120.571 10.496 121.739 10.496C122.939 10.496 123.963 10.76 124.811 11.288C125.659 11.816 126.307 12.544 126.755 13.472C127.203 14.4 127.427 15.464 127.427 16.664V17.072C127.427 18.288 127.203 19.36 126.755 20.288C126.307 21.216 125.659 21.944 124.811 22.472C123.963 22.984 122.947 23.24 121.763 23.24ZM121.763 21.536C122.691 21.536 123.451 21.2 124.043 20.528C124.635 19.84 124.931 18.888 124.931 17.672V16.064C124.931 14.848 124.635 13.904 124.043 13.232C123.451 12.544 122.691 12.2 121.763 12.2C120.851 12.2 120.091 12.544 119.483 13.232C118.891 13.904 118.595 14.848 118.595 16.064V17.672C118.595 18.888 118.891 19.84 119.483 20.528C120.091 21.2 120.851 21.536 121.763 21.536ZM59.088 52V35.536H69.48L69.168 37.6H61.584V42.736H68.208V44.728H61.584V52H59.088ZM77.5826 52V36.568H73.1666V34.696H79.9586V52H77.5826ZM73.1666 52V50.152H84.1346V52H73.1666ZM92.9813 52.24C91.7973 52.24 90.7813 51.976 89.9333 51.448C89.0853 50.92 88.4373 50.192 87.9893 49.264C87.5413 48.32 87.3173 47.256 87.3173 46.072V45.664C87.3173 44.448 87.5413 43.376 87.9893 42.448C88.4373 41.52 89.0853 40.8 89.9333 40.288C90.7813 39.76 91.7893 39.496 92.9573 39.496C94.1573 39.496 95.1813 39.76 96.0293 40.288C96.8773 40.816 97.5253 41.544 97.9733 42.472C98.4213 43.4 98.6453 44.464 98.6453 45.664V46.072C98.6453 47.288 98.4213 48.36 97.9733 49.288C97.5253 50.216 96.8773 50.944 96.0293 51.472C95.1813 51.984 94.1653 52.24 92.9813 52.24ZM92.9813 50.536C93.9093 50.536 94.6693 50.2 95.2613 49.528C95.8533 48.84 96.1493 47.888 96.1493 46.672V45.064C96.1493 43.848 95.8533 42.904 95.2613 42.232C94.6693 41.544 93.9093 41.2 92.9813 41.2C92.0693 41.2 91.3093 41.544 90.7013 42.232C90.1093 42.904 89.8133 43.848 89.8133 45.064V46.672C89.8133 47.888 90.1093 48.84 90.7013 49.528C91.3093 50.2 92.0693 50.536 92.9813 50.536ZM102.956 52L100.172 39.736H102.164L104.276 48.64H104.372L106.364 39.736H108.644L110.492 48.64H110.588L112.652 39.736H114.572L111.86 52H109.436L107.54 42.832H107.444L105.356 52H102.956Z" fill="#1E1E1E"/>
<path d="M27 5.2207C24.8906 5.2207 21.9375 5.58984 20.25 6.32812V8.22656H13.5V14.0273H40.5V8.22656H33.75V6.32812C32.0625 5.58984 29.1094 5.2207 27 5.2207ZM21.9375 9.49219C22.8656 9.49219 23.625 10.2473 23.625 11.1797C23.625 12.1078 22.8656 12.8672 21.9375 12.8672C21.0094 12.8672 20.25 12.1078 20.25 11.1797C20.25 10.2473 21.0094 9.49219 21.9375 9.49219ZM32.0625 9.49219C32.9906 9.49219 33.75 10.2473 33.75 11.1797C33.75 12.1078 32.9906 12.8672 32.0625 12.8672C31.1344 12.8672 30.375 12.1078 30.375 11.1797C30.375 10.2473 31.1344 9.49219 32.0625 9.49219ZM11.8125 15.9258V17.8242H10.125V19.7227H43.875V17.8242H42.1875V15.9258H11.8125ZM8.4375 21.4102V23.3086H45.5625V21.4102H8.4375ZM10.125 25.207V32.8008H22.0113C22.8656 27.3164 31.1344 27.3164 31.9887 32.8008H43.875V25.207H10.125ZM10.125 34.6992V37.8633H20.25V39.7617H10.125V52.3125H21.9375V34.6992H10.125ZM32.0625 34.6992V52.3125H43.875V39.7617H33.75V37.8633H43.875V34.6992H32.0625Z" fill="black"/>
</svg>
