<svg width="22" height="22" viewBox="0 0 22 22" fill="none" xmlns="http://www.w3.org/2000/svg">
<path d="M11.0028 19.25C9.86242 19.25 8.78992 19.0334 7.78525 18.6001C6.78119 18.1674 5.90761 17.5798 5.1645 16.8373C4.42139 16.0948 3.83319 15.2216 3.39992 14.2175C2.96664 13.2134 2.75 12.1409 2.75 11C2.75 9.85722 2.96419 8.78808 3.39258 7.79258C3.82097 6.79708 4.41253 5.92197 5.16725 5.16725L5.81533 5.81533C5.14311 6.48756 4.61694 7.26489 4.23683 8.14733C3.85672 9.02978 3.66667 9.98067 3.66667 11C3.66667 13.0472 4.37708 14.7812 5.79792 16.2021C7.21875 17.6229 8.95278 18.3333 11 18.3333C13.0472 18.3333 14.7812 17.6229 16.2021 16.2021C17.6229 14.7812 18.3333 13.0472 18.3333 11C18.3333 9.97639 18.1433 9.02428 17.7632 8.14367C17.3831 7.26367 16.8569 6.48756 16.1847 5.81533L16.8337 5.16633C17.5878 5.92106 18.179 6.79647 18.6074 7.79258C19.0358 8.78869 19.25 9.86028 19.25 11.0073C19.25 12.1416 19.0337 13.2107 18.601 14.2148C18.1677 15.2188 17.5798 16.0924 16.8373 16.8355C16.0948 17.5786 15.2222 18.1668 14.2193 18.6001C13.2165 19.0334 12.1443 19.25 11.0028 19.25ZM10.5417 11.9167V2.75H11.4583V11.9167H10.5417Z" fill="#F7F7F7"/>
</svg>
