<svg width="18" height="18" viewBox="0 0 18 18" fill="none" xmlns="http://www.w3.org/2000/svg">
<path d="M16.875 0H4.875C4.77554 0 4.68016 0.0395089 4.60983 0.109835C4.53951 0.180161 4.5 0.275544 4.5 0.375V4.5H0.375C0.275544 4.5 0.180161 4.53951 0.109835 4.60983C0.0395089 4.68016 0 4.77554 0 4.875V16.875C0 16.9745 0.0395089 17.0698 0.109835 17.1402C0.180161 17.2105 0.275544 17.25 0.375 17.25H12.375C12.4745 17.25 12.5698 17.2105 12.6402 17.1402C12.7105 17.0698 12.75 16.9745 12.75 16.875V12.75H16.875C16.9745 12.75 17.0698 12.7105 17.1402 12.6402C17.2105 12.5698 17.25 12.4745 17.25 12.375V0.375C17.25 0.275544 17.2105 0.180161 17.1402 0.109835C17.0698 0.0395089 16.9745 0 16.875 0ZM12 16.5H0.75V5.25H12V16.5ZM16.5 12H12.75V4.875C12.75 4.77554 12.7105 4.68016 12.6402 4.60983C12.5698 4.53951 12.4745 4.5 12.375 4.5H5.25V0.75H16.5V12Z" fill="black"/>
</svg>
